<svg width="27" height="41" viewBox="0 0 27 41" fill="none" xmlns="http://www.w3.org/2000/svg">
<path fill-rule="evenodd" clip-rule="evenodd" d="M0 8.51673L0.752701 7.85837L13.5 15.6012L26.2473 7.85837L27 8.51673V16.5167L13.5 24.7167L0 16.5167V8.51673ZM1 16.0086L13.5 23.6012L26 16.0086V9.12414L13.5 16.7167L1 9.12414V16.0086Z" fill="black"/>
<path fill-rule="evenodd" clip-rule="evenodd" d="M0 0.658362L0.752701 0L13.5 7.7428L26.2473 0L27 0.658362V8.65836L13.5 16.8584L0 8.65836V0.658362ZM1 8.15021L13.5 15.7428L26 8.15021V1.26577L13.5 8.85836L1 1.26577V8.15021Z" fill="black"/>
<path fill-rule="evenodd" clip-rule="evenodd" d="M0 16.3751L0.752701 15.7167L13.5 23.4595L26.2473 15.7167L27 16.3751V24.3751L13.5 32.5751L0 24.3751V16.3751ZM1 23.8669L13.5 31.4595L26 23.8669V16.9825L13.5 24.5751L1 16.9825V23.8669Z" fill="black"/>
<path fill-rule="evenodd" clip-rule="evenodd" d="M0 24.2335L0.752701 23.5751L13.5 31.3179L26.2473 23.5751L27 24.2335V32.2335L13.5 40.4335L0 32.2335V24.2335ZM1 31.7253L13.5 39.3179L26 31.7253V24.8409L13.5 32.4335L1 24.8409V31.7253Z" fill="black"/>
</svg>
