<svg width="27" height="41" viewBox="0 0 27 41" fill="none" xmlns="http://www.w3.org/2000/svg">
<path fill-rule="evenodd" clip-rule="evenodd" d="M0 8.65836L0.752701 8L13.5 15.7428L26.2473 8L27 8.65836V16.6584L13.5 24.8584L0 16.6584V8.65836ZM1 16.1502L13.5 23.7428L26 16.1502V9.26577L13.5 16.8584L1 9.26577V16.1502Z" fill="white"/>
<path d="M13.5 23.7428L1 16.1502V9.26577L13.5 16.8584L26 9.26577V16.1502L13.5 23.7428Z" fill="white"/>
<path fill-rule="evenodd" clip-rule="evenodd" d="M0 16.6584L0.752701 16L13.5 23.7428L26.2473 16L27 16.6584V24.6584L13.5 32.8584L0 24.6584V16.6584ZM1 24.1502L13.5 31.7428L26 24.1502V17.2658L13.5 24.8584L1 17.2658V24.1502Z" fill="white"/>
<path d="M13.5 31.7428L1 24.1502V17.2658L13.5 24.8584L26 17.2658V24.1502L13.5 31.7428Z" fill="white"/>
<path fill-rule="evenodd" clip-rule="evenodd" d="M0 24.6584L0.752701 24L13.5 31.7428L26.2473 24L27 24.6584V32.6584L13.5 40.8584L0 32.6584V24.6584ZM1 32.1502L13.5 39.7428L26 32.1502V25.2658L13.5 32.8584L1 25.2658V32.1502Z" fill="white"/>
<path d="M13.5 39.7428L1 32.1502V25.2658L13.5 32.8584L26 25.2658V32.1502L13.5 39.7428Z" fill="white"/>
<path fill-rule="evenodd" clip-rule="evenodd" d="M0 8.51676L0.752701 7.8584L13.5 15.6012L26.2473 7.8584L27 8.51676V16.5168L13.5 24.7168L0 16.5168V8.51676ZM1 16.0086L13.5 23.6012L26 16.0086V9.12417L13.5 16.7168L1 9.12417V16.0086Z" fill="black"/>
<path fill-rule="evenodd" clip-rule="evenodd" d="M0 0.658362L0.752701 0L13.5 7.7428L26.2473 0L27 0.658362V8.65836L13.5 16.8584L0 8.65836V0.658362ZM1 8.15021L13.5 15.7428L26 8.15021V1.26577L13.5 8.85836L1 1.26577V8.15021Z" fill="white"/>
<path d="M13.5 15.7428L1 8.15021V1.26577L13.5 8.85836L26 1.26577V8.15021L13.5 15.7428Z" fill="white"/>
<path fill-rule="evenodd" clip-rule="evenodd" d="M0 0.658362L0.752701 0L13.5 7.7428L26.2473 0L27 0.658362V8.65836L13.5 16.8584L0 8.65836V0.658362ZM1 8.15021L13.5 15.7428L26 8.15021V1.26577L13.5 8.85836L1 1.26577V8.15021Z" fill="black"/>
<path fill-rule="evenodd" clip-rule="evenodd" d="M0 16.3751L0.752701 15.7168L13.5 23.4596L26.2473 15.7168L27 16.3751V24.3751L13.5 32.5751L0 24.3751V16.3751ZM1 23.867L13.5 31.4596L26 23.867V16.9825L13.5 24.5751L1 16.9825V23.867Z" fill="black"/>
<path fill-rule="evenodd" clip-rule="evenodd" d="M0 24.2335L0.752701 23.5751L13.5 31.3179L26.2473 23.5751L27 24.2335V32.2335L13.5 40.4335L0 32.2335V24.2335ZM1 31.7253L13.5 39.3179L26 31.7253V24.8409L13.5 32.4335L1 24.8409V31.7253Z" fill="black"/>
</svg>
